<?xml version="1.0" encoding="utf-8"?>
<!-- Generator: Adobe Illustrator 27.5.0, SVG Export Plug-In . SVG Version: 6.00 Build 0)  -->
<svg version="1.1" id="Camada_2_00000103976789816279822280000014820412339983533983_"
	 xmlns="http://www.w3.org/2000/svg" xmlns:xlink="http://www.w3.org/1999/xlink" x="0px" y="0px" viewBox="0 0 44.7 44.6"
	 style="enable-background:new 0 0 44.7 44.6;" xml:space="preserve">
<style type="text/css">
	.st0{fill:#F6F6F6;}
	.st1{fill:#22D4FD;}
</style>
<g id="Camada_2-2">
	<polygon class="st0" points="1.7,23.5 22.3,1.7 43.2,23.5 43.2,43.1 27.5,43.1 27.5,27.6 22,24 17.1,27.5 17.1,43.1 1.7,43.1 	"/>
	<g id="Camada_1-2">
		<path class="st1" d="M43.2,44.6H27.5c-0.8,0-1.5-0.7-1.5-1.5V29.5c0-2-1.6-3.7-3.7-3.7s-3.7,1.6-3.7,3.7v13.7
			c0,0.8-0.7,1.5-1.5,1.5H1.5C0.7,44.6,0,44,0,43.2V23.5c0-0.4,0.1-0.7,0.4-1l20.9-22c0.5-0.6,1.6-0.6,2.1,0l20.9,22
			c0.3,0.3,0.4,0.6,0.4,1v19.7C44.7,44,44,44.6,43.2,44.6L43.2,44.6L43.2,44.6z M28.9,41.7h12.8V24.1L22.3,3.6L2.9,24.1v17.6h12.8
			V29.5c0-3.6,3-6.6,6.6-6.6s6.6,3,6.6,6.6L28.9,41.7L28.9,41.7L28.9,41.7z"/>
	</g>
</g>
</svg>
