<?xml version="1.0" encoding="UTF-8"?><svg id="Camada_2" xmlns="http://www.w3.org/2000/svg" viewBox="0 0 44.65 44.63"><defs><style>.cls-1{fill:#22d4fd;}</style></defs><g id="Camada_1-2"><path class="cls-1" d="m43.18,44.63h-15.7c-.81,0-1.47-.66-1.47-1.47v-13.71c0-2.03-1.65-3.69-3.69-3.69s-3.68,1.65-3.68,3.69v13.71c0,.81-.66,1.47-1.47,1.47H1.47c-.81,0-1.47-.66-1.47-1.47v-19.69c0-.38.14-.74.4-1.01L21.26.44c.55-.59,1.58-.59,2.13,0l20.86,22.03c.26.27.4.63.4,1.01v19.69c0,.81-.66,1.47-1.47,1.47Zm-14.24-2.94h12.77v-17.64L22.33,3.58,2.94,24.06v17.64h12.77v-12.24c0-3.65,2.97-6.62,6.62-6.62s6.62,2.97,6.62,6.62v12.24Z"/></g></svg>