<?xml version="1.0" encoding="utf-8"?>
<!-- Generator: Adobe Illustrator 27.5.0, SVG Export Plug-In . SVG Version: 6.00 Build 0)  -->
<svg version="1.1" id="Camada_2_00000126287973158045808610000015646435258783397510_"
	 xmlns="http://www.w3.org/2000/svg" xmlns:xlink="http://www.w3.org/1999/xlink" x="0px" y="0px" viewBox="0 0 41.7 44.7"
	 style="enable-background:new 0 0 41.7 44.7;" xml:space="preserve">
<style type="text/css">
	.st0{fill:#F6F6F6;stroke:#000000;stroke-miterlimit:10;}
	.st1{fill:#54C3EB;}
</style>
<g id="Camada_3">
	<path class="st0" d="M40.4,43.1c0,0-1-19.6-19.4-18.9S1.8,43.1,1.8,43.1H40.4L40.4,43.1z"/>
</g>
<g id="Camada_4">
	<path class="st0" d="M21,2C21,2,9.4,4.2,9.9,12.9S21,24.2,21,24.2s12.1-1.7,11.3-11.4C31.5,3.2,21,2,21,2z"/>
</g>
<g id="Camada_2-2">
	<g id="Camada_1-2">
		<path class="st1" d="M20.8,25.3c-6.9,0-12.5-5.6-12.5-12.5S13.9,0.2,20.8,0.2s12.5,5.6,12.5,12.5S27.7,25.3,20.8,25.3L20.8,25.3
			L20.8,25.3z M20.8,3.1c-5.3,0-9.6,4.3-9.6,9.6s4.3,9.6,9.6,9.6s9.6-4.3,9.6-9.6S26.1,3.1,20.8,3.1L20.8,3.1L20.8,3.1z"/>
		<path class="st1" d="M40,44.4H1.7c-0.8,0-1.5-0.7-1.5-1.5c0-11.4,9.2-20.6,20.6-20.6S41.4,31.6,41.4,43
			C41.4,43.8,40.8,44.4,40,44.4z M3.2,41.5h35.3c-0.7-9.1-8.4-16.2-17.6-16.2S3.9,32.4,3.2,41.5L3.2,41.5L3.2,41.5z"/>
	</g>
</g>
</svg>
