<?xml version="1.0" encoding="UTF-8"?><svg id="Camada_2" xmlns="http://www.w3.org/2000/svg" viewBox="0 0 41.66 44.65"><defs><style>.cls-1{fill:#54c3eb;}</style></defs><g id="Camada_1-2"><path class="cls-1" d="m20.83,25.29c-6.97,0-12.65-5.67-12.65-12.65S13.85,0,20.83,0s12.65,5.67,12.65,12.65-5.67,12.65-12.65,12.65Zm0-22.36c-5.35,0-9.71,4.36-9.71,9.71s4.36,9.71,9.71,9.71,9.71-4.36,9.71-9.71S26.18,2.94,20.83,2.94Z"/><path class="cls-1" d="m40.19,44.65H1.47c-.81,0-1.47-.66-1.47-1.47,0-11.48,9.34-20.83,20.83-20.83s20.83,9.34,20.83,20.83c0,.81-.66,1.47-1.47,1.47Zm-37.19-2.94h35.66c-.75-9.18-8.46-16.42-17.83-16.42S3.75,32.53,3,41.72Z"/></g></svg>