<?xml version="1.0" encoding="utf-8"?>
<!-- Generator: Adobe Illustrator 25.1.0, SVG Export Plug-In . SVG Version: 6.00 Build 0)  -->
<svg version="1.1" id="Camada_1" xmlns="http://www.w3.org/2000/svg" xmlns:xlink="http://www.w3.org/1999/xlink" x="0px" y="0px"
	 viewBox="0 0 80 80" style="enable-background:new 0 0 80 80;" xml:space="preserve">
<style type="text/css">
	.st0{fill:#F2FAFF;}
	.st1{fill:#79BA7E;}
	.st2{fill:#FFFFFF;}
</style>
<path class="st0" d="M7.9,58.7l-0.1-0.2c-3.3-5.6-5-12.1-5-18.7c0-20.6,16.8-37.3,37.3-37.3c10,0,19.4,3.9,26.4,10.9
	c7,7.1,10.9,16.4,10.9,26.4c0,20.6-16.8,37.3-37.3,37.3c-6.2,0-12.4-1.6-17.9-4.5l-0.2-0.1L2.7,77.6L7.9,58.7z"/>
<path class="st1" d="M40,70c-5,0-10-1.3-14.3-3.6l-2.9-1.6l-3.2,0.8l-6.5,1.7l1.7-6.1l0.9-3.3L14,55c-2.6-4.5-4-9.7-4-15
	c0-16.5,13.5-30,30-30c8,0,15.6,3.1,21.2,8.8C66.9,24.5,70,32,70,40C70,56.5,56.5,70,40,70z"/>
<path class="st2" d="M56.6,47.4c-0.9-0.4-5.3-2.6-6.1-2.9c-0.8-0.3-1.4-0.4-2,0.4c-0.6,0.9-2.3,2.9-2.8,3.5c-0.5,0.6-1,0.7-1.9,0.2
	c-0.9-0.4-3.8-1.4-7.2-4.5c-2.7-2.4-4.5-5.3-5-6.2c-0.5-0.9-0.1-1.4,0.4-1.8c0.4-0.4,0.9-1.1,1.3-1.6c0.4-0.5,0.6-0.9,0.9-1.5
	c0.3-0.6,0.2-1.1-0.1-1.6c-0.2-0.4-2-4.9-2.8-6.7c-0.7-1.8-1.5-1.5-2-1.5c-0.5,0-1.1,0-1.7,0c-0.6,0-1.6,0.2-2.4,1.1
	c-0.8,0.9-3.1,3.1-3.1,7.5s3.2,8.7,3.7,9.3s6.3,9.7,15.4,13.6c2.1,0.9,3.8,1.5,5.1,1.9c2.2,0.7,4.1,0.6,5.7,0.4
	c1.7-0.3,5.3-2.2,6.1-4.3c0.8-2.1,0.8-3.9,0.5-4.3C58.1,48.1,57.5,47.8,56.6,47.4z"/>
</svg>
